<?xml version="1.0" encoding="utf-8"?>
<svg version="1.1" id="Calque_1" xmlns="http://www.w3.org/2000/svg" xmlns:xlink="http://www.w3.org/1999/xlink" x="0px" y="0px"
	 viewBox="0 0 261 81" style="enable-background:new 0 0 261 81;" xml:space="preserve">
<g>
	<path d="M46.1,38.3c0.2,0.5,0.7,0.7,1.2,0.7c0.2,0,0.4,0,0.6-0.1c0.1,0,8-4.1,12-5.3c0.7-0.2,1.1-1,0.9-1.7
		c-0.2-0.7-1-1.1-1.7-0.9c-4.1,1.3-12,5.3-12.4,5.5C46,36.9,45.7,37.7,46.1,38.3z"/>
	<path d="M47.3,22.8c0.2,0,0.4,0,0.6-0.1c0.1,0,8-4.1,12-5.3c0.7-0.2,1.1-1,0.9-1.7c-0.2-0.7-1-1.1-1.7-0.9
		c-4.1,1.3-12,5.3-12.4,5.5c-0.7,0.3-0.9,1.2-0.6,1.8C46.3,22.6,46.8,22.8,47.3,22.8z"/>
	<path d="M78.5,21c-0.1,0.1-0.1,0.2-0.1,0.4V77c0,0.8-0.6,1.4-1.4,1.4H41.8v-3.1c2-0.7,7.1-2.3,12.2-2.3
		c11.8,0,19.8,2.6,19.8,2.6c0.4,0.1,0.9,0.1,1.2-0.2c0.4-0.3,0.6-0.7,0.6-1.1V14.7c0-0.6-0.4-1.2-1.1-1.3c0,0-1.1-0.2-2.9-0.6
		c-0.7-0.1-1.4,0.4-1.6,1.1c-0.1,0.7,0.3,1.4,1.1,1.6c0.7,0.1,1.3,0.2,1.7,0.3v56.6c-3.1-0.8-9.9-2.3-19-2.3
		c-5.9,0-11.7,1.9-13.5,2.6c-1.6-0.7-6.4-2.6-12.2-2.6c-9.3,0-17,1.5-20.3,2.3V15.8c2.7-0.7,10.7-2.4,20.4-2.4
		c5,0,9.2,1.5,10.9,2.2v53.2c0,0.5,0.3,0.9,0.7,1.2c0.4,0.2,0.9,0.2,1.4,0c0.1-0.1,13.5-8.1,25.4-12c0.6-0.2,0.9-0.7,0.9-1.3V1.2
		c0-0.4-0.2-0.9-0.6-1.1c-0.4-0.3-0.8-0.3-1.2-0.2C54.9,4,44,10.8,43.9,10.9c-0.6,0.4-0.8,1.2-0.4,1.9c0.4,0.6,1.2,0.8,1.9,0.4
		c0.1-0.1,9.6-6,19.5-10v52.5c-9.2,3.2-18.9,8.4-23,10.8V14.7c0-0.5-0.3-1-0.7-1.2c-0.2-0.1-5.8-2.8-12.8-2.8
		c-12.2,0-21.6,2.6-22,2.8c-0.6,0.2-1,0.7-1,1.3v59.6c0,0.4,0.2,0.8,0.5,1.1c0.2,0.2,0.5,0.3,0.8,0.3c0.1,0,0.2,0,0.4-0.1
		c0.1,0,9.4-2.7,21.2-2.7c4.9,0,9.2,1.5,10.8,2.2v3.2H3.5c-0.5,0-0.8-0.4-0.8-0.8l0-56.3c0-0.1,0-0.1-0.1-0.2
		C1.4,19.8,0,20.6,0,21.8v57.9c0,0.8,0.6,1.4,1.4,1.4h77.3c1.3,0,2.3-1,2.3-2.3V21.8C81,20.6,79.6,19.8,78.5,21z"/>
	<path d="M46.1,30.2c0.2,0.5,0.7,0.7,1.2,0.7c0.2,0,0.4,0,0.6-0.1c0.1,0,8-4.1,12-5.3c0.7-0.2,1.1-1,0.9-1.7
		c-0.2-0.7-1-1.1-1.7-0.9c-4.1,1.3-12,5.3-12.4,5.5C46,28.7,45.7,29.6,46.1,30.2z"/>
	<path d="M46.1,46.5c0.2,0.5,0.7,0.7,1.2,0.7c0.2,0,0.4,0,0.6-0.1c0.1,0,8-4.1,12-5.3c0.7-0.2,1.1-1,0.9-1.7
		c-0.2-0.7-1-1.1-1.7-0.9c-4.1,1.3-12,5.3-12.4,5.5C46,45,45.7,45.8,46.1,46.5z"/>
	<path d="M32.7,25c-8.4-2-17.8,0.5-18.2,0.6c-0.7,0.2-1.1,0.9-1,1.7c0.2,0.6,0.7,1,1.3,1c0.1,0,0.2,0,0.4,0
		c0.1,0,9.2-2.4,16.9-0.6c0.7,0.2,1.5-0.3,1.6-1C33.9,25.8,33.4,25.1,32.7,25z"/>
	<path d="M32.7,33.1c-8.4-2-17.8,0.5-18.2,0.6c-0.7,0.2-1.1,0.9-1,1.7c0.2,0.6,0.7,1,1.3,1c0.1,0,0.2,0,0.4,0
		c0.1,0,9.2-2.4,16.9-0.6c0.7,0.2,1.5-0.3,1.6-1C33.9,34,33.4,33.2,32.7,33.1z"/>
	<path d="M46.1,54.6c0.2,0.5,0.7,0.7,1.2,0.7c0.2,0,0.4,0,0.6-0.1c0.1,0,8-4.1,12-5.3c0.7-0.2,1.1-1,0.9-1.7
		c-0.2-0.7-1-1.1-1.7-0.9c-4.1,1.3-12,5.3-12.4,5.5C46,53.1,45.7,53.9,46.1,54.6z"/>
	<path d="M32.7,41.2c-8.4-2-17.8,0.5-18.2,0.6c-0.7,0.2-1.1,0.9-1,1.7c0.2,0.6,0.7,1,1.3,1c0.1,0,0.2,0,0.4,0
		c0.1,0,9.2-2.4,16.9-0.6c0.7,0.2,1.5-0.3,1.6-1C33.9,42.1,33.4,41.4,32.7,41.2z"/>
	<path d="M32.7,57.4c-8.4-2-17.8,0.5-18.2,0.6c-0.7,0.2-1.1,0.9-1,1.7c0.2,0.6,0.7,1,1.3,1c0.1,0,0.2,0,0.4,0
		c0.1,0,9.2-2.4,16.9-0.6c0.7,0.2,1.5-0.3,1.6-1C33.9,58.3,33.4,57.6,32.7,57.4z"/>
	<path d="M32.7,49.3c-8.4-2-17.8,0.5-18.2,0.6c-0.7,0.2-1.1,0.9-1,1.7c0.2,0.6,0.7,1,1.3,1c0.1,0,0.2,0,0.4,0
		c0.1,0,9.2-2.4,16.9-0.6c0.7,0.2,1.5-0.3,1.6-1C33.9,50.2,33.4,49.5,32.7,49.3z"/>
</g>
<g>
	<path d="M118.8,32l-6.4,25.4h-4l-5.9-20.7l-5.9,20.7h-4L86.2,32h3.6l4.9,21.6l6-21.6h3.6l6,21.5l4.9-21.5H118.8z"/>
	<path d="M140.7,48.2h-15.8c0.1,2.3,0.7,3.9,1.9,5.1c1.2,1.1,2.7,1.7,4.4,1.7c1.6,0,2.9-0.4,4-1.2c1.1-0.8,1.7-1.9,2-3.2h3.5
		c-0.2,1.4-0.8,2.6-1.6,3.7s-1.9,1.9-3.2,2.5c-1.3,0.6-2.8,0.9-4.5,0.9c-1.9,0-3.6-0.4-5-1.2c-1.5-0.8-2.6-2-3.4-3.5
		c-0.8-1.5-1.2-3.3-1.2-5.4s0.4-3.9,1.2-5.4c0.8-1.5,2-2.7,3.4-3.5c1.5-0.8,3.1-1.2,5-1.2c1.9,0,3.6,0.4,5,1.2
		c1.4,0.8,2.5,1.9,3.3,3.3c0.8,1.4,1.1,2.9,1.1,4.5C140.9,47,140.8,47.6,140.7,48.2z M136.8,42.9c-0.6-1-1.3-1.7-2.3-2.2
		s-2-0.7-3.1-0.7c-1.8,0-3.3,0.6-4.5,1.7c-1.2,1.1-1.9,2.8-2,4.9h12.6C137.6,45.1,137.4,43.9,136.8,42.9z"/>
	<path d="M160.7,38.5c1.4,0.8,2.4,2,3.2,3.5c0.8,1.5,1.2,3.3,1.2,5.4s-0.4,3.9-1.2,5.4c-0.8,1.5-1.9,2.7-3.2,3.5
		c-1.4,0.8-2.9,1.2-4.7,1.2c-1.9,0-3.5-0.5-4.9-1.5s-2.3-2.3-2.8-3.8v5h-3.3V30.7h3.3v11.9c0.5-1.6,1.4-2.9,2.8-3.8
		c1.3-1,3-1.5,4.9-1.5C157.8,37.3,159.4,37.7,160.7,38.5z M151.7,41.1c-1,0.6-1.8,1.4-2.4,2.5c-0.6,1.1-0.9,2.4-0.9,3.8
		c0,1.4,0.3,2.7,0.9,3.8c0.6,1.1,1.4,1.9,2.4,2.5c1,0.6,2.2,0.9,3.5,0.9c2,0,3.7-0.6,4.9-1.9c1.2-1.3,1.8-3.1,1.8-5.3
		s-0.6-4-1.8-5.3c-1.2-1.3-2.8-1.9-4.9-1.9C153.9,40.2,152.7,40.5,151.7,41.1z"/>
	<path d="M185.6,46.4c1,1.2,1.5,2.5,1.5,4.1c0,2.1-0.7,3.7-2.1,5c-1.4,1.2-3.4,1.9-6.1,1.9h-9.4V32h9.3c2.5,0,4.5,0.6,5.8,1.7
		c1.3,1.1,2,2.7,2,4.6c0,1.6-0.4,3-1.3,4c-0.9,1-2,1.7-3.4,1.9C183.4,44.5,184.6,45.3,185.6,46.4z M172.7,43.1h5.5
		c1.6,0,2.8-0.4,3.7-1.1c0.9-0.7,1.3-1.8,1.3-3.1c0-1.3-0.4-2.3-1.3-3.1c-0.8-0.7-2.1-1.1-3.9-1.1h-5.3V43.1z M182.3,53.4
		c0.9-0.8,1.4-1.9,1.4-3.3c0-1.4-0.5-2.5-1.5-3.3c-1-0.8-2.3-1.2-4-1.2h-5.5v9.1h5.5C180,54.6,181.3,54.2,182.3,53.4z"/>
	<path d="M205.2,38.5c1.5,0.8,2.7,2,3.5,3.5c0.9,1.5,1.3,3.3,1.3,5.4s-0.4,3.9-1.3,5.4c-0.9,1.5-2,2.7-3.5,3.5
		c-1.5,0.8-3.2,1.2-5.1,1.2s-3.6-0.4-5.1-1.2c-1.5-0.8-2.7-2-3.5-3.5c-0.9-1.5-1.3-3.3-1.3-5.4s0.4-3.9,1.3-5.4
		c0.9-1.5,2-2.7,3.5-3.5c1.5-0.8,3.2-1.2,5.1-1.2S203.7,37.7,205.2,38.5z M196.9,41c-1,0.5-1.8,1.3-2.4,2.4
		c-0.6,1.1-0.9,2.4-0.9,4.1c0,1.6,0.3,2.9,0.9,4c0.6,1.1,1.4,1.9,2.4,2.4c1,0.5,2.1,0.8,3.3,0.8s2.3-0.3,3.3-0.8
		c1-0.5,1.8-1.3,2.4-2.4c0.6-1.1,0.9-2.4,0.9-4c0-1.6-0.3-3-0.9-4.1c-0.6-1.1-1.4-1.9-2.4-2.4c-1-0.5-2.1-0.8-3.3-0.8
		S197.9,40.5,196.9,41z"/>
	<path d="M228.4,38.5c1.5,0.8,2.7,2,3.5,3.5c0.9,1.5,1.3,3.3,1.3,5.4s-0.4,3.9-1.3,5.4c-0.9,1.5-2,2.7-3.5,3.5
		c-1.5,0.8-3.2,1.2-5.1,1.2s-3.6-0.4-5.1-1.2c-1.5-0.8-2.7-2-3.5-3.5c-0.9-1.5-1.3-3.3-1.3-5.4s0.4-3.9,1.3-5.4
		c0.9-1.5,2-2.7,3.5-3.5c1.5-0.8,3.2-1.2,5.1-1.2S226.9,37.7,228.4,38.5z M220,41c-1,0.5-1.8,1.3-2.4,2.4c-0.6,1.1-0.9,2.4-0.9,4.1
		c0,1.6,0.3,2.9,0.9,4c0.6,1.1,1.4,1.9,2.4,2.4c1,0.5,2.1,0.8,3.3,0.8s2.3-0.3,3.3-0.8c1-0.5,1.8-1.3,2.4-2.4c0.6-1.1,0.9-2.4,0.9-4
		c0-1.6-0.3-3-0.9-4.1c-0.6-1.1-1.4-1.9-2.4-2.4c-1-0.5-2.1-0.8-3.3-0.8S221,40.5,220,41z"/>
	<path d="M248.3,57.3l-7.6-8.9v8.9h-3.3V30.7h3.3v15.5l7.5-8.6h4l-8.9,9.8l9.1,9.9H248.3z"/>
</g>
</svg>
